<?xml version="1.0" encoding="iso-8859-1"?>
<!-- Generator: Adobe Illustrator 17.1.0, SVG Export Plug-In . SVG Version: 6.00 Build 0)  -->
<!DOCTYPE svg PUBLIC "-//W3C//DTD SVG 1.1//EN" "http://www.w3.org/Graphics/SVG/1.1/DTD/svg11.dtd">
<svg version="1.1" id="Capa_1" xmlns="http://www.w3.org/2000/svg" xmlns:xlink="http://www.w3.org/1999/xlink" x="0px" y="0px"
	 viewBox="0 0 298.295 298.295" style="enable-background:new 0 0 298.295 298.295;" xml:space="preserve">
<path id="XMLID_296_" d="M261.312,36.984C237.464,13.135,205.756,0,172.029,0s-65.437,13.135-89.285,36.983
	c-46.608,46.611-49.089,120.897-7.441,170.454l-72.08,72.079c-4.296,4.296-4.296,11.261,0,15.557
	c2.148,2.147,4.963,3.222,7.778,3.222s5.63-1.074,7.778-3.222l72.075-72.076c22.708,19.123,51.141,29.537,81.175,29.537
	c33.728,0,65.436-13.135,89.283-36.983c23.849-23.849,36.983-55.557,36.983-89.283C298.295,92.54,285.16,60.832,261.312,36.984z
	 M245.755,199.994c-19.692,19.694-45.876,30.54-73.727,30.54c-27.852,0-54.035-10.846-73.729-30.54
	c-40.651-40.653-40.651-106.801,0-147.454C117.993,32.846,144.177,22,172.029,22c27.851,0,54.034,10.846,73.727,30.54
	c19.694,19.693,30.54,45.877,30.54,73.728S265.449,180.301,245.755,199.994z M172.023,55.004c-39.293,0-71.26,31.969-71.26,71.263
	s31.967,71.263,71.26,71.263c10.018,0,19.709-2.04,28.804-6.063c5.556-2.457,8.068-8.953,5.61-14.509
	c-2.457-5.557-8.954-8.07-14.509-5.61c-6.274,2.774-12.972,4.182-19.905,4.182c-27.162,0-49.26-22.1-49.26-49.263
	s22.098-49.263,49.26-49.263c27.145,0,48.787,21.723,49.27,49.453c0.058,3.326-0.59,7.716-4.002,9.738
	c-2.397,1.421-5.802,1.431-8.275,0.022c-2.204-1.255-3.275-3.346-3.275-6.391V113.37c0-6.075-4.925-11-11-11
	c-0.52,0-1.031,0.036-1.532,0.105c-5.791-5.501-13.615-8.88-22.215-8.88c-17.801,0-32.283,14.481-32.283,32.282
	s14.482,32.283,32.283,32.283c7.938,0,15.215-2.88,20.843-7.649c1.82,1.854,3.925,3.475,6.29,4.822
	c9.301,5.298,21.229,5.214,30.385-0.215c9.613-5.699,15-16.285,14.778-29.044c-0.331-19.012-7.811-36.829-21.063-50.17
	C208.837,62.427,191.008,55.004,172.023,55.004z M170.992,136.161c-5.67,0-10.283-4.613-10.283-10.283s4.613-10.282,10.283-10.282
	s10.282,4.612,10.282,10.282S176.662,136.161,170.992,136.161z"/>
<g>
</g>
<g>
</g>
<g>
</g>
<g>
</g>
<g>
</g>
<g>
</g>
<g>
</g>
<g>
</g>
<g>
</g>
<g>
</g>
<g>
</g>
<g>
</g>
<g>
</g>
<g>
</g>
<g>
</g>
</svg>
